G04 #@! TF.FileFunction,Legend,Top*
%FSLAX46Y46*%
G04 Gerber Fmt 4.6, Leading zero omitted, Abs format (unit mm)*
G04 Created by KiCad (PCBNEW 4.0.4-1.fc25-product) date Wed Mar 29 11:33:43 2017*
%MOMM*%
%LPD*%
G01*
G04 APERTURE LIST*
%ADD10C,0.100000*%
%ADD11C,0.200000*%
%ADD12C,0.150000*%
G04 APERTURE END LIST*
D10*
D11*
X162965904Y-117816381D02*
X163537333Y-117816381D01*
X163251618Y-118816381D02*
X163251618Y-117816381D01*
X163870666Y-118816381D02*
X163870666Y-118149714D01*
X163870666Y-117816381D02*
X163823047Y-117864000D01*
X163870666Y-117911619D01*
X163918285Y-117864000D01*
X163870666Y-117816381D01*
X163870666Y-117911619D01*
X164346856Y-118149714D02*
X164346856Y-118816381D01*
X164346856Y-118244952D02*
X164394475Y-118197333D01*
X164489713Y-118149714D01*
X164632571Y-118149714D01*
X164727809Y-118197333D01*
X164775428Y-118292571D01*
X164775428Y-118816381D01*
X165156380Y-118149714D02*
X165394475Y-118816381D01*
X165632571Y-118149714D02*
X165394475Y-118816381D01*
X165299237Y-119054476D01*
X165251618Y-119102095D01*
X165156380Y-119149714D01*
X166346857Y-118292571D02*
X166489714Y-118340190D01*
X166537333Y-118387810D01*
X166584952Y-118483048D01*
X166584952Y-118625905D01*
X166537333Y-118721143D01*
X166489714Y-118768762D01*
X166394476Y-118816381D01*
X166013523Y-118816381D01*
X166013523Y-117816381D01*
X166346857Y-117816381D01*
X166442095Y-117864000D01*
X166489714Y-117911619D01*
X166537333Y-118006857D01*
X166537333Y-118102095D01*
X166489714Y-118197333D01*
X166442095Y-118244952D01*
X166346857Y-118292571D01*
X166013523Y-118292571D01*
X167442095Y-118149714D02*
X167442095Y-118816381D01*
X167013523Y-118149714D02*
X167013523Y-118673524D01*
X167061142Y-118768762D01*
X167156380Y-118816381D01*
X167299238Y-118816381D01*
X167394476Y-118768762D01*
X167442095Y-118721143D01*
X168346857Y-118768762D02*
X168251619Y-118816381D01*
X168061142Y-118816381D01*
X167965904Y-118768762D01*
X167918285Y-118721143D01*
X167870666Y-118625905D01*
X167870666Y-118340190D01*
X167918285Y-118244952D01*
X167965904Y-118197333D01*
X168061142Y-118149714D01*
X168251619Y-118149714D01*
X168346857Y-118197333D01*
X168775428Y-118816381D02*
X168775428Y-117816381D01*
X168870666Y-118435429D02*
X169156381Y-118816381D01*
X169156381Y-118149714D02*
X168775428Y-118530667D01*
X170918286Y-118816381D02*
X170584952Y-118340190D01*
X170346857Y-118816381D02*
X170346857Y-117816381D01*
X170727810Y-117816381D01*
X170823048Y-117864000D01*
X170870667Y-117911619D01*
X170918286Y-118006857D01*
X170918286Y-118149714D01*
X170870667Y-118244952D01*
X170823048Y-118292571D01*
X170727810Y-118340190D01*
X170346857Y-118340190D01*
X171727810Y-118768762D02*
X171632572Y-118816381D01*
X171442095Y-118816381D01*
X171346857Y-118768762D01*
X171299238Y-118673524D01*
X171299238Y-118292571D01*
X171346857Y-118197333D01*
X171442095Y-118149714D01*
X171632572Y-118149714D01*
X171727810Y-118197333D01*
X171775429Y-118292571D01*
X171775429Y-118387810D01*
X171299238Y-118483048D01*
X172108762Y-118149714D02*
X172346857Y-118816381D01*
X172584953Y-118149714D01*
X172965905Y-118721143D02*
X173013524Y-118768762D01*
X172965905Y-118816381D01*
X172918286Y-118768762D01*
X172965905Y-118721143D01*
X172965905Y-118816381D01*
X173965905Y-118816381D02*
X173394476Y-118816381D01*
X173680190Y-118816381D02*
X173680190Y-117816381D01*
X173584952Y-117959238D01*
X173489714Y-118054476D01*
X173394476Y-118102095D01*
X175156381Y-118816381D02*
X175156381Y-117816381D01*
X175489715Y-118530667D01*
X175823048Y-117816381D01*
X175823048Y-118816381D01*
X176727810Y-118816381D02*
X176727810Y-118292571D01*
X176680191Y-118197333D01*
X176584953Y-118149714D01*
X176394476Y-118149714D01*
X176299238Y-118197333D01*
X176727810Y-118768762D02*
X176632572Y-118816381D01*
X176394476Y-118816381D01*
X176299238Y-118768762D01*
X176251619Y-118673524D01*
X176251619Y-118578286D01*
X176299238Y-118483048D01*
X176394476Y-118435429D01*
X176632572Y-118435429D01*
X176727810Y-118387810D01*
X177204000Y-118816381D02*
X177204000Y-118149714D01*
X177204000Y-118340190D02*
X177251619Y-118244952D01*
X177299238Y-118197333D01*
X177394476Y-118149714D01*
X177489715Y-118149714D01*
X178537334Y-117768762D02*
X177680191Y-119054476D01*
X179394477Y-118816381D02*
X178823048Y-118816381D01*
X179108762Y-118816381D02*
X179108762Y-117816381D01*
X179013524Y-117959238D01*
X178918286Y-118054476D01*
X178823048Y-118102095D01*
X179727810Y-117816381D02*
X180394477Y-117816381D01*
X179965905Y-118816381D01*
D12*
X168938000Y-117055000D02*
X169938000Y-117055000D01*
X169938000Y-115355000D02*
X168938000Y-115355000D01*
X163322000Y-112141000D02*
X161290000Y-112141000D01*
X156718000Y-112141000D02*
X158750000Y-112141000D01*
X162560000Y-105537000D02*
X161290000Y-105537000D01*
X163322000Y-106299000D02*
X162560000Y-105537000D01*
X163322000Y-112141000D02*
X163322000Y-106299000D01*
X156718000Y-106299000D02*
X156718000Y-112141000D01*
X157480000Y-105537000D02*
X156718000Y-106299000D01*
X158750000Y-105537000D02*
X157480000Y-105537000D01*
X182360000Y-106895000D02*
X183360000Y-106895000D01*
X183360000Y-105195000D02*
X182360000Y-105195000D01*
X181344000Y-117436000D02*
X182344000Y-117436000D01*
X182344000Y-115736000D02*
X181344000Y-115736000D01*
X165620000Y-82462000D02*
X164620000Y-82462000D01*
X164620000Y-84162000D02*
X165620000Y-84162000D01*
X162080000Y-100926000D02*
X163080000Y-100926000D01*
X163080000Y-99226000D02*
X162080000Y-99226000D01*
X168148000Y-113919000D02*
X168148000Y-114427000D01*
X169672000Y-113919000D02*
X168148000Y-113919000D01*
X169672000Y-114427000D02*
X169672000Y-113919000D01*
X165862000Y-114427000D02*
X165862000Y-114173000D01*
X171958000Y-114427000D02*
X165862000Y-114427000D01*
X171958000Y-114173000D02*
X171958000Y-114427000D01*
X165862000Y-105283000D02*
X165862000Y-105537000D01*
X171958000Y-105283000D02*
X165862000Y-105283000D01*
X171958000Y-105537000D02*
X171958000Y-105283000D01*
X165100000Y-85090000D02*
X163068000Y-85090000D01*
X165100000Y-91440000D02*
X163068000Y-91440000D01*
X174498000Y-108585000D02*
X174498000Y-113665000D01*
X174218000Y-105765000D02*
X175768000Y-105765000D01*
X177038000Y-106045000D02*
X177038000Y-108585000D01*
X177038000Y-108585000D02*
X174498000Y-108585000D01*
X174498000Y-113665000D02*
X179578000Y-113665000D01*
X179578000Y-113665000D02*
X179578000Y-108585000D01*
X174218000Y-105765000D02*
X174218000Y-107315000D01*
X179578000Y-106045000D02*
X177038000Y-106045000D01*
X179578000Y-108585000D02*
X179578000Y-106045000D01*
X167640000Y-119380000D02*
X180340000Y-119380000D01*
X180340000Y-119380000D02*
X180340000Y-121920000D01*
X180340000Y-121920000D02*
X167640000Y-121920000D01*
X164820000Y-119100000D02*
X166370000Y-119100000D01*
X167640000Y-119380000D02*
X167640000Y-121920000D01*
X166370000Y-122200000D02*
X164820000Y-122200000D01*
X164820000Y-122200000D02*
X164820000Y-119100000D01*
X166370000Y-81280000D02*
X163830000Y-81280000D01*
X169190000Y-81560000D02*
X167640000Y-81560000D01*
X166370000Y-81280000D02*
X166370000Y-78740000D01*
X167640000Y-78460000D02*
X169190000Y-78460000D01*
X169190000Y-78460000D02*
X169190000Y-81560000D01*
X166370000Y-78740000D02*
X163830000Y-78740000D01*
X163830000Y-78740000D02*
X163830000Y-81280000D01*
X161880000Y-96661000D02*
X163080000Y-96661000D01*
X163080000Y-98411000D02*
X161880000Y-98411000D01*
X164040000Y-93510000D02*
G75*
G03X164040000Y-93510000I-100000J0D01*
G01*
X163690000Y-94060000D02*
X163690000Y-93560000D01*
X160790000Y-94060000D02*
X163690000Y-94060000D01*
X160790000Y-93560000D02*
X160790000Y-94060000D01*
X163690000Y-93560000D02*
X160790000Y-93560000D01*
X166370000Y-96729360D02*
X165920000Y-96179360D01*
X165920000Y-96179360D02*
X166820000Y-96179360D01*
X166820000Y-96179360D02*
X166370000Y-96729360D01*
X165820000Y-96729360D02*
X166920000Y-96729360D01*
X168120060Y-98278500D02*
X167769540Y-98278500D01*
X164619940Y-98278500D02*
X164970460Y-98278500D01*
X168120060Y-94228920D02*
X167769540Y-94228920D01*
X168120060Y-98729800D02*
X167769540Y-98729800D01*
X164619940Y-98729800D02*
X164970460Y-98729800D01*
X164619940Y-94228920D02*
X164970460Y-94228920D01*
X168120060Y-98729800D02*
X168120060Y-94228920D01*
X164619940Y-98729800D02*
X164619940Y-94228920D01*
X174510000Y-82335000D02*
X173510000Y-82335000D01*
X173510000Y-84035000D02*
X174510000Y-84035000D01*
X172240000Y-101180000D02*
X173240000Y-101180000D01*
X173240000Y-99480000D02*
X172240000Y-99480000D01*
X182725000Y-82335000D02*
X181725000Y-82335000D01*
X181725000Y-84035000D02*
X182725000Y-84035000D01*
X182380000Y-101180000D02*
X183380000Y-101180000D01*
X183380000Y-99480000D02*
X182380000Y-99480000D01*
X176530000Y-96810640D02*
X176080000Y-96260640D01*
X176080000Y-96260640D02*
X176980000Y-96260640D01*
X176980000Y-96260640D02*
X176530000Y-96810640D01*
X175980000Y-96810640D02*
X177080000Y-96810640D01*
X178280060Y-98359780D02*
X177929540Y-98359780D01*
X174779940Y-98359780D02*
X175130460Y-98359780D01*
X178280060Y-94310200D02*
X177929540Y-94310200D01*
X178280060Y-98811080D02*
X177929540Y-98811080D01*
X174779940Y-98811080D02*
X175130460Y-98811080D01*
X174779940Y-94310200D02*
X175130460Y-94310200D01*
X178280060Y-98811080D02*
X178280060Y-94310200D01*
X174779940Y-98811080D02*
X174779940Y-94310200D01*
X186690000Y-96729360D02*
X186240000Y-96179360D01*
X186240000Y-96179360D02*
X187140000Y-96179360D01*
X187140000Y-96179360D02*
X186690000Y-96729360D01*
X186140000Y-96729360D02*
X187240000Y-96729360D01*
X188440060Y-98278500D02*
X188089540Y-98278500D01*
X184939940Y-98278500D02*
X185290460Y-98278500D01*
X188440060Y-94228920D02*
X188089540Y-94228920D01*
X188440060Y-98729800D02*
X188089540Y-98729800D01*
X184939940Y-98729800D02*
X185290460Y-98729800D01*
X184939940Y-94228920D02*
X185290460Y-94228920D01*
X188440060Y-98729800D02*
X188440060Y-94228920D01*
X184939940Y-98729800D02*
X184939940Y-94228920D01*
X175260000Y-85090000D02*
X173228000Y-85090000D01*
X175260000Y-91440000D02*
X173228000Y-91440000D01*
X185420000Y-85090000D02*
X183388000Y-85090000D01*
X185420000Y-91440000D02*
X183388000Y-91440000D01*
X173990000Y-81280000D02*
X171450000Y-81280000D01*
X176810000Y-81560000D02*
X175260000Y-81560000D01*
X173990000Y-81280000D02*
X173990000Y-78740000D01*
X175260000Y-78460000D02*
X176810000Y-78460000D01*
X176810000Y-78460000D02*
X176810000Y-81560000D01*
X173990000Y-78740000D02*
X171450000Y-78740000D01*
X171450000Y-78740000D02*
X171450000Y-81280000D01*
X181610000Y-81280000D02*
X179070000Y-81280000D01*
X184430000Y-81560000D02*
X182880000Y-81560000D01*
X181610000Y-81280000D02*
X181610000Y-78740000D01*
X182880000Y-78460000D02*
X184430000Y-78460000D01*
X184430000Y-78460000D02*
X184430000Y-81560000D01*
X181610000Y-78740000D02*
X179070000Y-78740000D01*
X179070000Y-78740000D02*
X179070000Y-81280000D01*
X172040000Y-96915000D02*
X173240000Y-96915000D01*
X173240000Y-98665000D02*
X172040000Y-98665000D01*
X182200000Y-96915000D02*
X183400000Y-96915000D01*
X183400000Y-98665000D02*
X182200000Y-98665000D01*
X174200000Y-93510000D02*
G75*
G03X174200000Y-93510000I-100000J0D01*
G01*
X173850000Y-94060000D02*
X173850000Y-93560000D01*
X170950000Y-94060000D02*
X173850000Y-94060000D01*
X170950000Y-93560000D02*
X170950000Y-94060000D01*
X173850000Y-93560000D02*
X170950000Y-93560000D01*
X184360000Y-93510000D02*
G75*
G03X184360000Y-93510000I-100000J0D01*
G01*
X184010000Y-94060000D02*
X184010000Y-93560000D01*
X181110000Y-94060000D02*
X184010000Y-94060000D01*
X181110000Y-93560000D02*
X181110000Y-94060000D01*
X184010000Y-93560000D02*
X181110000Y-93560000D01*
X183388000Y-107569000D02*
X180340000Y-107569000D01*
X180340000Y-107569000D02*
X180340000Y-114681000D01*
X180340000Y-114681000D02*
X183388000Y-114681000D01*
X186436000Y-107569000D02*
X187198000Y-107569000D01*
X187198000Y-107569000D02*
X189484000Y-109093000D01*
X189484000Y-109093000D02*
X189484000Y-113157000D01*
X189484000Y-113157000D02*
X187198000Y-114681000D01*
X187198000Y-114681000D02*
X186436000Y-114681000D01*
X165949334Y-116435143D02*
X165901715Y-116482762D01*
X165758858Y-116530381D01*
X165663620Y-116530381D01*
X165520762Y-116482762D01*
X165425524Y-116387524D01*
X165377905Y-116292286D01*
X165330286Y-116101810D01*
X165330286Y-115958952D01*
X165377905Y-115768476D01*
X165425524Y-115673238D01*
X165520762Y-115578000D01*
X165663620Y-115530381D01*
X165758858Y-115530381D01*
X165901715Y-115578000D01*
X165949334Y-115625619D01*
X166901715Y-116530381D02*
X166330286Y-116530381D01*
X166616000Y-116530381D02*
X166616000Y-115530381D01*
X166520762Y-115673238D01*
X166425524Y-115768476D01*
X166330286Y-115816095D01*
X164822143Y-109005666D02*
X164869762Y-109053285D01*
X164917381Y-109196142D01*
X164917381Y-109291380D01*
X164869762Y-109434238D01*
X164774524Y-109529476D01*
X164679286Y-109577095D01*
X164488810Y-109624714D01*
X164345952Y-109624714D01*
X164155476Y-109577095D01*
X164060238Y-109529476D01*
X163965000Y-109434238D01*
X163917381Y-109291380D01*
X163917381Y-109196142D01*
X163965000Y-109053285D01*
X164012619Y-109005666D01*
X164012619Y-108624714D02*
X163965000Y-108577095D01*
X163917381Y-108481857D01*
X163917381Y-108243761D01*
X163965000Y-108148523D01*
X164012619Y-108100904D01*
X164107857Y-108053285D01*
X164203095Y-108053285D01*
X164345952Y-108100904D01*
X164917381Y-108672333D01*
X164917381Y-108053285D01*
X158059429Y-107187952D02*
X158059429Y-106426047D01*
X158440381Y-106806999D02*
X157678476Y-106806999D01*
X186015334Y-106529143D02*
X185967715Y-106576762D01*
X185824858Y-106624381D01*
X185729620Y-106624381D01*
X185586762Y-106576762D01*
X185491524Y-106481524D01*
X185443905Y-106386286D01*
X185396286Y-106195810D01*
X185396286Y-106052952D01*
X185443905Y-105862476D01*
X185491524Y-105767238D01*
X185586762Y-105672000D01*
X185729620Y-105624381D01*
X185824858Y-105624381D01*
X185967715Y-105672000D01*
X186015334Y-105719619D01*
X186348667Y-105624381D02*
X186967715Y-105624381D01*
X186634381Y-106005333D01*
X186777239Y-106005333D01*
X186872477Y-106052952D01*
X186920096Y-106100571D01*
X186967715Y-106195810D01*
X186967715Y-106433905D01*
X186920096Y-106529143D01*
X186872477Y-106576762D01*
X186777239Y-106624381D01*
X186491524Y-106624381D01*
X186396286Y-106576762D01*
X186348667Y-106529143D01*
X178141334Y-116943143D02*
X178093715Y-116990762D01*
X177950858Y-117038381D01*
X177855620Y-117038381D01*
X177712762Y-116990762D01*
X177617524Y-116895524D01*
X177569905Y-116800286D01*
X177522286Y-116609810D01*
X177522286Y-116466952D01*
X177569905Y-116276476D01*
X177617524Y-116181238D01*
X177712762Y-116086000D01*
X177855620Y-116038381D01*
X177950858Y-116038381D01*
X178093715Y-116086000D01*
X178141334Y-116133619D01*
X178998477Y-116371714D02*
X178998477Y-117038381D01*
X178760381Y-115990762D02*
X178522286Y-116705048D01*
X179141334Y-116705048D01*
X161758334Y-83542143D02*
X161710715Y-83589762D01*
X161567858Y-83637381D01*
X161472620Y-83637381D01*
X161329762Y-83589762D01*
X161234524Y-83494524D01*
X161186905Y-83399286D01*
X161139286Y-83208810D01*
X161139286Y-83065952D01*
X161186905Y-82875476D01*
X161234524Y-82780238D01*
X161329762Y-82685000D01*
X161472620Y-82637381D01*
X161567858Y-82637381D01*
X161710715Y-82685000D01*
X161758334Y-82732619D01*
X162663096Y-82637381D02*
X162186905Y-82637381D01*
X162139286Y-83113571D01*
X162186905Y-83065952D01*
X162282143Y-83018333D01*
X162520239Y-83018333D01*
X162615477Y-83065952D01*
X162663096Y-83113571D01*
X162710715Y-83208810D01*
X162710715Y-83446905D01*
X162663096Y-83542143D01*
X162615477Y-83589762D01*
X162520239Y-83637381D01*
X162282143Y-83637381D01*
X162186905Y-83589762D01*
X162139286Y-83542143D01*
X162393334Y-102592143D02*
X162345715Y-102639762D01*
X162202858Y-102687381D01*
X162107620Y-102687381D01*
X161964762Y-102639762D01*
X161869524Y-102544524D01*
X161821905Y-102449286D01*
X161774286Y-102258810D01*
X161774286Y-102115952D01*
X161821905Y-101925476D01*
X161869524Y-101830238D01*
X161964762Y-101735000D01*
X162107620Y-101687381D01*
X162202858Y-101687381D01*
X162345715Y-101735000D01*
X162393334Y-101782619D01*
X163250477Y-101687381D02*
X163060000Y-101687381D01*
X162964762Y-101735000D01*
X162917143Y-101782619D01*
X162821905Y-101925476D01*
X162774286Y-102115952D01*
X162774286Y-102496905D01*
X162821905Y-102592143D01*
X162869524Y-102639762D01*
X162964762Y-102687381D01*
X163155239Y-102687381D01*
X163250477Y-102639762D01*
X163298096Y-102592143D01*
X163345715Y-102496905D01*
X163345715Y-102258810D01*
X163298096Y-102163571D01*
X163250477Y-102115952D01*
X163155239Y-102068333D01*
X162964762Y-102068333D01*
X162869524Y-102115952D01*
X162821905Y-102163571D01*
X162774286Y-102258810D01*
X166155810Y-104846381D02*
X166155810Y-103846381D01*
X167203429Y-104751143D02*
X167155810Y-104798762D01*
X167012953Y-104846381D01*
X166917715Y-104846381D01*
X166774857Y-104798762D01*
X166679619Y-104703524D01*
X166632000Y-104608286D01*
X166584381Y-104417810D01*
X166584381Y-104274952D01*
X166632000Y-104084476D01*
X166679619Y-103989238D01*
X166774857Y-103894000D01*
X166917715Y-103846381D01*
X167012953Y-103846381D01*
X167155810Y-103894000D01*
X167203429Y-103941619D01*
X168155810Y-104846381D02*
X167584381Y-104846381D01*
X167870095Y-104846381D02*
X167870095Y-103846381D01*
X167774857Y-103989238D01*
X167679619Y-104084476D01*
X167584381Y-104132095D01*
X159837381Y-88431666D02*
X159837381Y-88907857D01*
X158837381Y-88907857D01*
X159837381Y-87574523D02*
X159837381Y-88145952D01*
X159837381Y-87860238D02*
X158837381Y-87860238D01*
X158980238Y-87955476D01*
X159075476Y-88050714D01*
X159123095Y-88145952D01*
X177696905Y-105862381D02*
X177696905Y-104862381D01*
X178077858Y-104862381D01*
X178173096Y-104910000D01*
X178220715Y-104957619D01*
X178268334Y-105052857D01*
X178268334Y-105195714D01*
X178220715Y-105290952D01*
X178173096Y-105338571D01*
X178077858Y-105386190D01*
X177696905Y-105386190D01*
X179220715Y-105862381D02*
X178649286Y-105862381D01*
X178935000Y-105862381D02*
X178935000Y-104862381D01*
X178839762Y-105005238D01*
X178744524Y-105100476D01*
X178649286Y-105148095D01*
X164282381Y-121388095D02*
X163282381Y-121388095D01*
X163282381Y-121007142D01*
X163330000Y-120911904D01*
X163377619Y-120864285D01*
X163472857Y-120816666D01*
X163615714Y-120816666D01*
X163710952Y-120864285D01*
X163758571Y-120911904D01*
X163806190Y-121007142D01*
X163806190Y-121388095D01*
X163377619Y-120435714D02*
X163330000Y-120388095D01*
X163282381Y-120292857D01*
X163282381Y-120054761D01*
X163330000Y-119959523D01*
X163377619Y-119911904D01*
X163472857Y-119864285D01*
X163568095Y-119864285D01*
X163710952Y-119911904D01*
X164282381Y-120483333D01*
X164282381Y-119864285D01*
X163012381Y-80748095D02*
X162012381Y-80748095D01*
X162012381Y-80367142D01*
X162060000Y-80271904D01*
X162107619Y-80224285D01*
X162202857Y-80176666D01*
X162345714Y-80176666D01*
X162440952Y-80224285D01*
X162488571Y-80271904D01*
X162536190Y-80367142D01*
X162536190Y-80748095D01*
X162012381Y-79843333D02*
X162012381Y-79224285D01*
X162393333Y-79557619D01*
X162393333Y-79414761D01*
X162440952Y-79319523D01*
X162488571Y-79271904D01*
X162583810Y-79224285D01*
X162821905Y-79224285D01*
X162917143Y-79271904D01*
X162964762Y-79319523D01*
X163012381Y-79414761D01*
X163012381Y-79700476D01*
X162964762Y-79795714D01*
X162917143Y-79843333D01*
X158583334Y-97988381D02*
X158250000Y-97512190D01*
X158011905Y-97988381D02*
X158011905Y-96988381D01*
X158392858Y-96988381D01*
X158488096Y-97036000D01*
X158535715Y-97083619D01*
X158583334Y-97178857D01*
X158583334Y-97321714D01*
X158535715Y-97416952D01*
X158488096Y-97464571D01*
X158392858Y-97512190D01*
X158011905Y-97512190D01*
X159535715Y-97988381D02*
X158964286Y-97988381D01*
X159250000Y-97988381D02*
X159250000Y-96988381D01*
X159154762Y-97131238D01*
X159059524Y-97226476D01*
X158964286Y-97274095D01*
X158623095Y-91527381D02*
X158623095Y-92336905D01*
X158670714Y-92432143D01*
X158718333Y-92479762D01*
X158813571Y-92527381D01*
X159004048Y-92527381D01*
X159099286Y-92479762D01*
X159146905Y-92432143D01*
X159194524Y-92336905D01*
X159194524Y-91527381D01*
X159623095Y-91622619D02*
X159670714Y-91575000D01*
X159765952Y-91527381D01*
X160004048Y-91527381D01*
X160099286Y-91575000D01*
X160146905Y-91622619D01*
X160194524Y-91717857D01*
X160194524Y-91813095D01*
X160146905Y-91955952D01*
X159575476Y-92527381D01*
X160194524Y-92527381D01*
X165631905Y-102052381D02*
X165631905Y-101052381D01*
X165870000Y-101052381D01*
X166012858Y-101100000D01*
X166108096Y-101195238D01*
X166155715Y-101290476D01*
X166203334Y-101480952D01*
X166203334Y-101623810D01*
X166155715Y-101814286D01*
X166108096Y-101909524D01*
X166012858Y-102004762D01*
X165870000Y-102052381D01*
X165631905Y-102052381D01*
X167155715Y-102052381D02*
X166584286Y-102052381D01*
X166870000Y-102052381D02*
X166870000Y-101052381D01*
X166774762Y-101195238D01*
X166679524Y-101290476D01*
X166584286Y-101338095D01*
X170648334Y-83542143D02*
X170600715Y-83589762D01*
X170457858Y-83637381D01*
X170362620Y-83637381D01*
X170219762Y-83589762D01*
X170124524Y-83494524D01*
X170076905Y-83399286D01*
X170029286Y-83208810D01*
X170029286Y-83065952D01*
X170076905Y-82875476D01*
X170124524Y-82780238D01*
X170219762Y-82685000D01*
X170362620Y-82637381D01*
X170457858Y-82637381D01*
X170600715Y-82685000D01*
X170648334Y-82732619D01*
X170981667Y-82637381D02*
X171648334Y-82637381D01*
X171219762Y-83637381D01*
X172553334Y-102592143D02*
X172505715Y-102639762D01*
X172362858Y-102687381D01*
X172267620Y-102687381D01*
X172124762Y-102639762D01*
X172029524Y-102544524D01*
X171981905Y-102449286D01*
X171934286Y-102258810D01*
X171934286Y-102115952D01*
X171981905Y-101925476D01*
X172029524Y-101830238D01*
X172124762Y-101735000D01*
X172267620Y-101687381D01*
X172362858Y-101687381D01*
X172505715Y-101735000D01*
X172553334Y-101782619D01*
X173124762Y-102115952D02*
X173029524Y-102068333D01*
X172981905Y-102020714D01*
X172934286Y-101925476D01*
X172934286Y-101877857D01*
X172981905Y-101782619D01*
X173029524Y-101735000D01*
X173124762Y-101687381D01*
X173315239Y-101687381D01*
X173410477Y-101735000D01*
X173458096Y-101782619D01*
X173505715Y-101877857D01*
X173505715Y-101925476D01*
X173458096Y-102020714D01*
X173410477Y-102068333D01*
X173315239Y-102115952D01*
X173124762Y-102115952D01*
X173029524Y-102163571D01*
X172981905Y-102211190D01*
X172934286Y-102306429D01*
X172934286Y-102496905D01*
X172981905Y-102592143D01*
X173029524Y-102639762D01*
X173124762Y-102687381D01*
X173315239Y-102687381D01*
X173410477Y-102639762D01*
X173458096Y-102592143D01*
X173505715Y-102496905D01*
X173505715Y-102306429D01*
X173458096Y-102211190D01*
X173410477Y-102163571D01*
X173315239Y-102115952D01*
X178268334Y-83542143D02*
X178220715Y-83589762D01*
X178077858Y-83637381D01*
X177982620Y-83637381D01*
X177839762Y-83589762D01*
X177744524Y-83494524D01*
X177696905Y-83399286D01*
X177649286Y-83208810D01*
X177649286Y-83065952D01*
X177696905Y-82875476D01*
X177744524Y-82780238D01*
X177839762Y-82685000D01*
X177982620Y-82637381D01*
X178077858Y-82637381D01*
X178220715Y-82685000D01*
X178268334Y-82732619D01*
X178744524Y-83637381D02*
X178935000Y-83637381D01*
X179030239Y-83589762D01*
X179077858Y-83542143D01*
X179173096Y-83399286D01*
X179220715Y-83208810D01*
X179220715Y-82827857D01*
X179173096Y-82732619D01*
X179125477Y-82685000D01*
X179030239Y-82637381D01*
X178839762Y-82637381D01*
X178744524Y-82685000D01*
X178696905Y-82732619D01*
X178649286Y-82827857D01*
X178649286Y-83065952D01*
X178696905Y-83161190D01*
X178744524Y-83208810D01*
X178839762Y-83256429D01*
X179030239Y-83256429D01*
X179125477Y-83208810D01*
X179173096Y-83161190D01*
X179220715Y-83065952D01*
X178427143Y-100687143D02*
X178379524Y-100734762D01*
X178236667Y-100782381D01*
X178141429Y-100782381D01*
X177998571Y-100734762D01*
X177903333Y-100639524D01*
X177855714Y-100544286D01*
X177808095Y-100353810D01*
X177808095Y-100210952D01*
X177855714Y-100020476D01*
X177903333Y-99925238D01*
X177998571Y-99830000D01*
X178141429Y-99782381D01*
X178236667Y-99782381D01*
X178379524Y-99830000D01*
X178427143Y-99877619D01*
X179379524Y-100782381D02*
X178808095Y-100782381D01*
X179093809Y-100782381D02*
X179093809Y-99782381D01*
X178998571Y-99925238D01*
X178903333Y-100020476D01*
X178808095Y-100068095D01*
X179998571Y-99782381D02*
X180093810Y-99782381D01*
X180189048Y-99830000D01*
X180236667Y-99877619D01*
X180284286Y-99972857D01*
X180331905Y-100163333D01*
X180331905Y-100401429D01*
X180284286Y-100591905D01*
X180236667Y-100687143D01*
X180189048Y-100734762D01*
X180093810Y-100782381D01*
X179998571Y-100782381D01*
X179903333Y-100734762D01*
X179855714Y-100687143D01*
X179808095Y-100591905D01*
X179760476Y-100401429D01*
X179760476Y-100163333D01*
X179808095Y-99972857D01*
X179855714Y-99877619D01*
X179903333Y-99830000D01*
X179998571Y-99782381D01*
X175791905Y-102306381D02*
X175791905Y-101306381D01*
X176030000Y-101306381D01*
X176172858Y-101354000D01*
X176268096Y-101449238D01*
X176315715Y-101544476D01*
X176363334Y-101734952D01*
X176363334Y-101877810D01*
X176315715Y-102068286D01*
X176268096Y-102163524D01*
X176172858Y-102258762D01*
X176030000Y-102306381D01*
X175791905Y-102306381D01*
X176744286Y-101401619D02*
X176791905Y-101354000D01*
X176887143Y-101306381D01*
X177125239Y-101306381D01*
X177220477Y-101354000D01*
X177268096Y-101401619D01*
X177315715Y-101496857D01*
X177315715Y-101592095D01*
X177268096Y-101734952D01*
X176696667Y-102306381D01*
X177315715Y-102306381D01*
X185951905Y-102306381D02*
X185951905Y-101306381D01*
X186190000Y-101306381D01*
X186332858Y-101354000D01*
X186428096Y-101449238D01*
X186475715Y-101544476D01*
X186523334Y-101734952D01*
X186523334Y-101877810D01*
X186475715Y-102068286D01*
X186428096Y-102163524D01*
X186332858Y-102258762D01*
X186190000Y-102306381D01*
X185951905Y-102306381D01*
X186856667Y-101306381D02*
X187475715Y-101306381D01*
X187142381Y-101687333D01*
X187285239Y-101687333D01*
X187380477Y-101734952D01*
X187428096Y-101782571D01*
X187475715Y-101877810D01*
X187475715Y-102115905D01*
X187428096Y-102211143D01*
X187380477Y-102258762D01*
X187285239Y-102306381D01*
X186999524Y-102306381D01*
X186904286Y-102258762D01*
X186856667Y-102211143D01*
X169997381Y-88431666D02*
X169997381Y-88907857D01*
X168997381Y-88907857D01*
X169092619Y-88145952D02*
X169045000Y-88098333D01*
X168997381Y-88003095D01*
X168997381Y-87764999D01*
X169045000Y-87669761D01*
X169092619Y-87622142D01*
X169187857Y-87574523D01*
X169283095Y-87574523D01*
X169425952Y-87622142D01*
X169997381Y-88193571D01*
X169997381Y-87574523D01*
X180157381Y-88431666D02*
X180157381Y-88907857D01*
X179157381Y-88907857D01*
X179157381Y-88193571D02*
X179157381Y-87574523D01*
X179538333Y-87907857D01*
X179538333Y-87764999D01*
X179585952Y-87669761D01*
X179633571Y-87622142D01*
X179728810Y-87574523D01*
X179966905Y-87574523D01*
X180062143Y-87622142D01*
X180109762Y-87669761D01*
X180157381Y-87764999D01*
X180157381Y-88050714D01*
X180109762Y-88145952D01*
X180062143Y-88193571D01*
X171267381Y-80748095D02*
X170267381Y-80748095D01*
X170267381Y-80367142D01*
X170315000Y-80271904D01*
X170362619Y-80224285D01*
X170457857Y-80176666D01*
X170600714Y-80176666D01*
X170695952Y-80224285D01*
X170743571Y-80271904D01*
X170791190Y-80367142D01*
X170791190Y-80748095D01*
X170600714Y-79319523D02*
X171267381Y-79319523D01*
X170219762Y-79557619D02*
X170934048Y-79795714D01*
X170934048Y-79176666D01*
X178887381Y-80748095D02*
X177887381Y-80748095D01*
X177887381Y-80367142D01*
X177935000Y-80271904D01*
X177982619Y-80224285D01*
X178077857Y-80176666D01*
X178220714Y-80176666D01*
X178315952Y-80224285D01*
X178363571Y-80271904D01*
X178411190Y-80367142D01*
X178411190Y-80748095D01*
X177887381Y-79271904D02*
X177887381Y-79748095D01*
X178363571Y-79795714D01*
X178315952Y-79748095D01*
X178268333Y-79652857D01*
X178268333Y-79414761D01*
X178315952Y-79319523D01*
X178363571Y-79271904D01*
X178458810Y-79224285D01*
X178696905Y-79224285D01*
X178792143Y-79271904D01*
X178839762Y-79319523D01*
X178887381Y-79414761D01*
X178887381Y-79652857D01*
X178839762Y-79748095D01*
X178792143Y-79795714D01*
X168743334Y-98242381D02*
X168410000Y-97766190D01*
X168171905Y-98242381D02*
X168171905Y-97242381D01*
X168552858Y-97242381D01*
X168648096Y-97290000D01*
X168695715Y-97337619D01*
X168743334Y-97432857D01*
X168743334Y-97575714D01*
X168695715Y-97670952D01*
X168648096Y-97718571D01*
X168552858Y-97766190D01*
X168171905Y-97766190D01*
X169124286Y-97337619D02*
X169171905Y-97290000D01*
X169267143Y-97242381D01*
X169505239Y-97242381D01*
X169600477Y-97290000D01*
X169648096Y-97337619D01*
X169695715Y-97432857D01*
X169695715Y-97528095D01*
X169648096Y-97670952D01*
X169076667Y-98242381D01*
X169695715Y-98242381D01*
X179157334Y-98242381D02*
X178824000Y-97766190D01*
X178585905Y-98242381D02*
X178585905Y-97242381D01*
X178966858Y-97242381D01*
X179062096Y-97290000D01*
X179109715Y-97337619D01*
X179157334Y-97432857D01*
X179157334Y-97575714D01*
X179109715Y-97670952D01*
X179062096Y-97718571D01*
X178966858Y-97766190D01*
X178585905Y-97766190D01*
X179490667Y-97242381D02*
X180109715Y-97242381D01*
X179776381Y-97623333D01*
X179919239Y-97623333D01*
X180014477Y-97670952D01*
X180062096Y-97718571D01*
X180109715Y-97813810D01*
X180109715Y-98051905D01*
X180062096Y-98147143D01*
X180014477Y-98194762D01*
X179919239Y-98242381D01*
X179633524Y-98242381D01*
X179538286Y-98194762D01*
X179490667Y-98147143D01*
X168783095Y-91527381D02*
X168783095Y-92336905D01*
X168830714Y-92432143D01*
X168878333Y-92479762D01*
X168973571Y-92527381D01*
X169164048Y-92527381D01*
X169259286Y-92479762D01*
X169306905Y-92432143D01*
X169354524Y-92336905D01*
X169354524Y-91527381D01*
X169735476Y-91527381D02*
X170354524Y-91527381D01*
X170021190Y-91908333D01*
X170164048Y-91908333D01*
X170259286Y-91955952D01*
X170306905Y-92003571D01*
X170354524Y-92098810D01*
X170354524Y-92336905D01*
X170306905Y-92432143D01*
X170259286Y-92479762D01*
X170164048Y-92527381D01*
X169878333Y-92527381D01*
X169783095Y-92479762D01*
X169735476Y-92432143D01*
X179324095Y-93178381D02*
X179324095Y-93987905D01*
X179371714Y-94083143D01*
X179419333Y-94130762D01*
X179514571Y-94178381D01*
X179705048Y-94178381D01*
X179800286Y-94130762D01*
X179847905Y-94083143D01*
X179895524Y-93987905D01*
X179895524Y-93178381D01*
X180800286Y-93511714D02*
X180800286Y-94178381D01*
X180562190Y-93130762D02*
X180324095Y-93845048D01*
X180943143Y-93845048D01*
X185126381Y-111886905D02*
X185935905Y-111886905D01*
X186031143Y-111839286D01*
X186078762Y-111791667D01*
X186126381Y-111696429D01*
X186126381Y-111505952D01*
X186078762Y-111410714D01*
X186031143Y-111363095D01*
X185935905Y-111315476D01*
X185126381Y-111315476D01*
X186126381Y-110315476D02*
X186126381Y-110886905D01*
X186126381Y-110601191D02*
X185126381Y-110601191D01*
X185269238Y-110696429D01*
X185364476Y-110791667D01*
X185412095Y-110886905D01*
M02*
