G04 #@! TF.FileFunction,Soldermask,Top*
%FSLAX46Y46*%
G04 Gerber Fmt 4.6, Leading zero omitted, Abs format (unit mm)*
G04 Created by KiCad (PCBNEW 4.0.4-1.fc25-product) date Wed Mar 29 11:33:43 2017*
%MOMM*%
%LPD*%
G01*
G04 APERTURE LIST*
%ADD10C,0.100000*%
%ADD11C,3.400000*%
%ADD12R,1.700000X1.450000*%
%ADD13R,1.800000X3.700000*%
%ADD14R,1.600000X0.780000*%
%ADD15R,2.500000X6.200000*%
%ADD16R,1.927200X1.927200*%
%ADD17O,1.927200X1.927200*%
%ADD18R,1.927200X2.232000*%
%ADD19O,1.927200X2.232000*%
%ADD20R,2.232000X2.232000*%
%ADD21O,2.232000X2.232000*%
%ADD22R,1.700000X1.500000*%
%ADD23R,0.850000X1.260000*%
%ADD24R,2.000860X3.700120*%
%ADD25R,2.232000X3.857600*%
%ADD26R,2.232000X1.216000*%
G04 APERTURE END LIST*
D10*
D11*
X187325000Y-119380000D03*
X159385000Y-119380000D03*
X187325000Y-80645000D03*
D12*
X170688000Y-116205000D03*
X168188000Y-116205000D03*
D13*
X160020000Y-111633000D03*
X160020000Y-106045000D03*
D12*
X184110000Y-106045000D03*
X181610000Y-106045000D03*
X183094000Y-116586000D03*
X180594000Y-116586000D03*
X163870000Y-83312000D03*
X166370000Y-83312000D03*
X163830000Y-100076000D03*
X161330000Y-100076000D03*
D14*
X171450000Y-113665000D03*
X171450000Y-112395000D03*
X171450000Y-111125000D03*
X171450000Y-109855000D03*
X171450000Y-108585000D03*
X171450000Y-107315000D03*
X171450000Y-106045000D03*
X166370000Y-106045000D03*
X166370000Y-107315000D03*
X166370000Y-108585000D03*
X166370000Y-109855000D03*
X166370000Y-111125000D03*
X166370000Y-112395000D03*
X166370000Y-113665000D03*
D15*
X161798000Y-88265000D03*
X166370000Y-88265000D03*
D16*
X175768000Y-107315000D03*
D17*
X178308000Y-107315000D03*
X175768000Y-109855000D03*
X178308000Y-109855000D03*
X175768000Y-112395000D03*
X178308000Y-112395000D03*
D18*
X166370000Y-120650000D03*
D19*
X168910000Y-120650000D03*
X171450000Y-120650000D03*
X173990000Y-120650000D03*
X176530000Y-120650000D03*
X179070000Y-120650000D03*
D20*
X167640000Y-80010000D03*
D21*
X165100000Y-80010000D03*
D22*
X163830000Y-97536000D03*
X161130000Y-97536000D03*
D23*
X163190000Y-92710000D03*
X162240000Y-92710000D03*
X161290000Y-92710000D03*
X161290000Y-94910000D03*
X163190000Y-94910000D03*
D24*
X166370000Y-98978720D03*
X166370000Y-93980000D03*
D12*
X172760000Y-83185000D03*
X175260000Y-83185000D03*
X173990000Y-100330000D03*
X171490000Y-100330000D03*
X180975000Y-83185000D03*
X183475000Y-83185000D03*
X184130000Y-100330000D03*
X181630000Y-100330000D03*
D24*
X176530000Y-99060000D03*
X176530000Y-94061280D03*
X186690000Y-98978720D03*
X186690000Y-93980000D03*
D15*
X171958000Y-88265000D03*
X176530000Y-88265000D03*
X182118000Y-88265000D03*
X186690000Y-88265000D03*
D20*
X175260000Y-80010000D03*
D21*
X172720000Y-80010000D03*
D20*
X182880000Y-80010000D03*
D21*
X180340000Y-80010000D03*
D22*
X173990000Y-97790000D03*
X171290000Y-97790000D03*
X184150000Y-97790000D03*
X181450000Y-97790000D03*
D23*
X173350000Y-92710000D03*
X172400000Y-92710000D03*
X171450000Y-92710000D03*
X171450000Y-94910000D03*
X173350000Y-94910000D03*
X183510000Y-92710000D03*
X182560000Y-92710000D03*
X181610000Y-92710000D03*
X181610000Y-94910000D03*
X183510000Y-94910000D03*
D25*
X188214000Y-111125000D03*
D26*
X181610000Y-111125000D03*
X181610000Y-113411000D03*
X181610000Y-108839000D03*
D11*
X159385000Y-80645000D03*
M02*
