M48
;DRILL file {KiCad 4.0.4-1.fc25-product} date Wed Mar 29 11:34:39 2017
;FORMAT={-:-/ absolute / inch / decimal}
FMAT,2
INCH,TZ
T1C0.016
T2C0.040
%
G90
G05
M72
T1
X6.2Y-4.05
X6.275Y-3.675
X6.275Y-3.725
X6.275Y-3.775
X6.275Y-3.825
X6.275Y-3.875
X6.31Y-3.94
X6.31Y-3.98
X6.32Y-3.79
X6.3512Y-4.395
X6.3512Y-4.4388
X6.3512Y-4.4788
X6.3516Y-3.9784
X6.37Y-3.79
X6.3874Y-3.6176
X6.3874Y-3.6874
X6.4431Y-4.0992
X6.5028Y-4.475
X6.55Y-3.24
X6.55Y-3.32
X6.585Y-4.475
X6.59Y-3.28
X6.62Y-4.53
X6.6216Y-4.6084
X6.625Y-3.775
X6.625Y-4.075
X6.67Y-4.17
X6.67Y-4.28
X6.675Y-3.6795
X6.675Y-3.725
X6.675Y-3.775
X6.675Y-3.825
X6.675Y-3.875
X6.71Y-3.95
X6.71Y-3.99
X6.72Y-3.79
X6.7516Y-3.9884
X6.77Y-3.79
X6.7874Y-3.6176
X6.7874Y-3.6824
X6.9Y-3.23
X6.9Y-3.32
X6.9385Y-4.5
X6.9492Y-3.275
X6.97Y-4.5
X7.025Y-3.775
X7.025Y-4.075
X7.075Y-3.6795
X7.075Y-3.725
X7.075Y-3.775
X7.075Y-3.825
X7.075Y-3.875
X7.11Y-3.95
X7.11Y-3.99
X7.12Y-3.79
X7.1508Y-3.9892
X7.17Y-3.79
X7.1874Y-3.6128
X7.1874Y-3.6876
X7.2084Y-4.6284
X7.2097Y-4.375
X7.21Y-4.55
X7.2234Y-3.2307
X7.24Y-4.28
X7.2484Y-4.1416
X7.2484Y-4.2084
X7.275Y-3.195
X7.275Y-3.235
X7.275Y-3.275
T2
X6.5Y-3.15
X6.55Y-4.75
X6.6Y-3.15
X6.65Y-4.75
X6.75Y-4.75
X6.8Y-3.15
X6.85Y-4.75
X6.9Y-3.15
X6.92Y-4.225
X6.92Y-4.325
X6.92Y-4.425
X6.95Y-4.75
X7.02Y-4.225
X7.02Y-4.325
X7.02Y-4.425
X7.05Y-4.75
X7.1Y-3.15
X7.2Y-3.15
T0
M30
